<svg width="20" height="20" viewBox="0 0 20 20" fill="none" xmlns="http://www.w3.org/2000/svg">
<g clip-path="url(#clip0_455_676)">
<path d="M15 1H5C2.79086 1 1 2.79086 1 5V15C1 17.2091 2.79086 19 5 19H15C17.2091 19 19 17.2091 19 15V5C19 2.79086 17.2091 1 15 1Z" stroke="#504A48" stroke-width="2"/>
<path d="M12.447 10.6511L12.7319 8.84059H10.9766V7.66374C10.9766 7.16867 11.2216 6.68492 12.0053 6.68492H12.8146V5.14313C12.3433 5.06798 11.867 5.02732 11.3898 5.02148C9.94496 5.02148 9.00174 5.88998 9.00174 7.46005V8.84059H7.40027V10.6511H9.00174V15.0304H10.9766V10.6511H12.447Z" fill="#504A48"/>
</g>
<defs>
<clipPath id="clip0_455_676">
<rect width="20" height="20" fill="white"/>
</clipPath>
</defs>
</svg>
