<svg width="479" height="155" viewBox="0 0 479 155" fill="none" xmlns="http://www.w3.org/2000/svg">
<path d="M457.16 132.561L447.48 153.521H439.96L453.8 123.601L441 89.6807H453.96L460.92 108.241L469.56 89.6807H477L464.36 117.121L478.04 153.521H465.08L457.16 132.561Z" fill="#F9F9F9"/>
<path d="M419.32 88.5605C423.427 88.5605 426.92 89.8405 429.8 92.4005C432.84 95.1739 434.973 100.001 436.2 106.881C436.947 110.987 437.32 115.894 437.32 121.601C437.32 128.534 436.76 134.321 435.64 138.961C434.68 142.907 433.427 146.001 431.88 148.241C430.333 150.534 428.253 152.241 425.64 153.361C423.613 154.214 421.427 154.641 419.08 154.641C414.707 154.641 411.107 153.361 408.28 150.801C406.733 149.414 405.373 147.334 404.2 144.561C401.853 139.014 400.68 131.387 400.68 121.681C400.68 114.427 401.267 108.534 402.44 104.001C403.987 97.9739 406.333 93.7872 409.48 91.4405C412.093 89.5205 415.373 88.5605 419.32 88.5605ZM419 94.0005C417.347 94.0005 416.04 95.6272 415.08 98.8805C413.8 103.094 413.16 110.721 413.16 121.761C413.16 140.054 415.107 149.201 419 149.201C422.893 149.201 424.84 140.054 424.84 121.761C424.84 114.667 424.52 108.694 423.88 103.841C423.347 99.6805 422.52 96.8539 421.4 95.3605C420.707 94.4539 419.907 94.0005 419 94.0005Z" fill="#F9F9F9"/>
<path d="M387.16 120.241C389.187 120.987 390.68 121.707 391.64 122.401C393.347 123.787 394.76 125.761 395.88 128.321C397 130.881 397.56 133.521 397.56 136.241C397.56 140.561 396.28 144.294 393.72 147.441C391.8 149.841 389.427 151.494 386.6 152.401C384.36 153.147 381.373 153.521 377.64 153.521H361.16V89.6807H376.04C380.253 89.6807 383.267 89.894 385.08 90.3207C388.707 91.1207 391.453 92.854 393.32 95.5207C395.293 98.3473 396.28 101.734 396.28 105.681C396.28 110.054 395.08 113.627 392.68 116.401C391.72 117.574 390.627 118.481 389.4 119.121C388.813 119.441 388.067 119.814 387.16 120.241ZM373 123.761V146.801H375.96C379.853 146.801 382.493 145.574 383.88 143.121C384.947 141.147 385.48 138.614 385.48 135.521C385.48 132.374 384.893 129.734 383.72 127.601C382.973 126.321 382.12 125.414 381.16 124.881C379.827 124.134 378.067 123.761 375.88 123.761H373ZM373 117.041H375.56C378.227 117.041 380.147 116.427 381.32 115.201C383.24 113.174 384.2 110.214 384.2 106.321C384.2 103.334 383.693 100.961 382.68 99.2007C382.253 98.3473 381.72 97.734 381.08 97.3607C379.853 96.7207 378.173 96.4007 376.04 96.4007H373V117.041Z" fill="#F9F9F9"/>
<path d="M327.88 111.921V153.521H321.16V89.6807H331.48L350.12 131.361V89.6807H356.84V153.521H346.52L327.88 111.921Z" fill="#F9F9F9"/>
<path d="M292.76 153.521V89.6807H305.24V153.521H292.76Z" fill="#F9F9F9"/>
<path d="M237.16 125.521H233.24V153.521H221.16V89.6807H237.16C241.533 89.6807 244.947 90.0807 247.4 90.8807C251.08 92.1073 253.907 94.774 255.88 98.8807C257 101.227 257.56 104.107 257.56 107.521C257.56 115.467 254.733 120.774 249.08 123.441L258.04 153.521H245.48L237.16 125.521ZM233.24 118.801H236.84C239.987 118.801 242.173 117.707 243.4 115.521C244.52 113.547 245.08 110.907 245.08 107.601C245.08 104.081 244.547 101.361 243.48 99.4407C243.053 98.5873 242.413 97.9207 241.56 97.4407C240.28 96.7473 238.813 96.4007 237.16 96.4007H233.24V118.801Z" fill="#F9F9F9"/>
<path d="M181.16 89.6807H193.24V135.521C193.24 139.787 193.8 142.907 194.92 144.881C196.04 146.907 198.12 147.921 201.16 147.921C203.56 147.921 205.507 147.227 207 145.841C209.08 143.921 210.12 140.481 210.12 135.521V89.6807H216.84V135.281C216.84 139.334 216.467 142.481 215.72 144.721C214.653 147.761 213.027 150.081 210.84 151.681C208.12 153.654 204.28 154.641 199.32 154.641C195.373 154.641 191.853 153.814 188.76 152.161C185.773 150.561 183.64 148.001 182.36 144.481C181.56 142.134 181.16 139.067 181.16 135.281V89.6807Z" fill="#F9F9F9"/>
<path d="M159.32 88.5605C163.427 88.5605 166.92 89.8405 169.8 92.4005C172.84 95.1739 174.973 100.001 176.2 106.881C176.947 110.987 177.32 115.894 177.32 121.601C177.32 128.534 176.76 134.321 175.64 138.961C174.68 142.907 173.427 146.001 171.88 148.241C170.333 150.534 168.253 152.241 165.64 153.361C163.613 154.214 161.427 154.641 159.08 154.641C154.707 154.641 151.107 153.361 148.28 150.801C146.733 149.414 145.373 147.334 144.2 144.561C141.853 139.014 140.68 131.387 140.68 121.681C140.68 114.427 141.267 108.534 142.44 104.001C143.987 97.9739 146.333 93.7872 149.48 91.4405C152.093 89.5205 155.373 88.5605 159.32 88.5605ZM159 94.0005C157.347 94.0005 156.04 95.6272 155.08 98.8805C153.8 103.094 153.16 110.721 153.16 121.761C153.16 140.054 155.107 149.201 159 149.201C162.893 149.201 164.84 140.054 164.84 121.761C164.84 114.667 164.52 108.694 163.88 103.841C163.347 99.6805 162.52 96.8539 161.4 95.3605C160.707 94.4539 159.907 94.0005 159 94.0005Z" fill="#F9F9F9"/>
<path d="M121.88 116.401L130.84 89.6807H137.96L125.08 128.081V153.521H112.84V127.441L99.96 89.6807H112.76L121.88 116.401Z" fill="#F9F9F9"/>
<path d="M59.3201 88.5605C63.4267 88.5605 66.9201 89.8405 69.8001 92.4005C72.8401 95.1739 74.9734 100.001 76.2001 106.881C76.9467 110.987 77.3201 115.894 77.3201 121.601C77.3201 128.534 76.7601 134.321 75.6401 138.961C74.6801 142.907 73.4267 146.001 71.8801 148.241C70.3334 150.534 68.2534 152.241 65.6401 153.361C63.6134 154.214 61.4267 154.641 59.0801 154.641C54.7067 154.641 51.1067 153.361 48.2801 150.801C46.7334 149.414 45.3734 147.334 44.2001 144.561C41.8534 139.014 40.6801 131.387 40.6801 121.681C40.6801 114.427 41.2667 108.534 42.4401 104.001C43.9867 97.9739 46.3334 93.7872 49.4801 91.4405C52.0934 89.5205 55.3734 88.5605 59.3201 88.5605ZM59.0001 94.0005C57.3467 94.0005 56.0401 95.6272 55.0801 98.8805C53.8001 103.094 53.1601 110.721 53.1601 121.761C53.1601 140.054 55.1067 149.201 59.0001 149.201C62.8934 149.201 64.8401 140.054 64.8401 121.761C64.8401 114.667 64.5201 108.694 63.8801 103.841C63.3467 99.6805 62.5201 96.8539 61.4001 95.3605C60.7067 94.4539 59.9067 94.0005 59.0001 94.0005Z" fill="#F9F9F9"/>
<path d="M5.08002 96.4007L0.52002 97.3607V88.7207L5.08002 89.6807H32.92L37.48 88.7207V97.3607L32.92 96.4007H25.24V153.521H12.76V96.4007H5.08002Z" fill="#F9F9F9"/>
<path d="M456.36 37.5197H452.44V65.5197H440.36V1.67969H456.36C460.733 1.67969 464.147 2.07969 466.6 2.87969C470.28 4.10635 473.107 6.77302 475.08 10.8797C476.2 13.2264 476.76 16.1064 476.76 19.5197C476.76 27.4664 473.933 32.773 468.28 35.4397L477.24 65.5197H464.68L456.36 37.5197ZM452.44 30.7997H456.04C459.187 30.7997 461.373 29.7064 462.6 27.5197C463.72 25.5464 464.28 22.9064 464.28 19.5997C464.28 16.0797 463.747 13.3597 462.68 11.4397C462.253 10.5864 461.613 9.91969 460.76 9.43969C459.48 8.74635 458.013 8.39969 456.36 8.39969H452.44V30.7997Z" fill="#F9F9F9"/>
<path d="M403.8 29.2007H419.88L424.44 28.2407V36.8807L419.88 35.9207H403.8V58.8007H422.92L427.56 57.8407V66.4807L422.92 65.5207H391.72V1.6807H422.92L427.56 0.720703V9.3607L422.92 8.4007H403.8V29.2007Z" fill="#F9F9F9"/>
<path d="M346.68 8.4007L342.12 9.3607V0.720703L346.68 1.6807H374.52L379.08 0.720703V9.3607L374.52 8.4007H366.84V65.5207H354.36V8.4007H346.68Z" fill="#F9F9F9"/>
<path d="M297.88 8.4007L293.32 9.3607V0.720703L297.88 1.6807H325.72L330.28 0.720703V9.3607L325.72 8.4007H318.04V65.5207H305.56V8.4007H297.88Z" fill="#F9F9F9"/>
<path d="M257.4 29.2007H273.48L278.04 28.2407V36.8807L273.48 35.9207H257.4V58.8007H276.52L281.16 57.8407V66.4807L276.52 65.5207H245.32V1.6807H276.52L281.16 0.720703V9.3607L276.52 8.4007H257.4V29.2007Z" fill="#F9F9F9"/>
<path d="M196.52 65.5197V1.67969H209V58.7997H228.04L232.68 57.8397V66.4797L228.04 65.5197H196.52Z" fill="#F9F9F9"/>
<path d="M183 20.7205H170.68C170.413 15.7071 169.827 12.0805 168.92 9.84047C167.853 7.22714 166.44 5.92047 164.68 5.92047C163.827 5.92047 163 6.26714 162.2 6.96047C161.453 7.60047 160.867 8.6138 160.44 10.0005C160.013 11.4938 159.8 13.0938 159.8 14.8005C159.8 16.5071 160.12 18.0005 160.76 19.2805C161.613 20.9871 163.133 22.5338 165.32 23.9205L173.48 28.9605C176.84 31.0405 179.347 33.4671 181 36.2405C182.92 39.3871 183.88 43.1471 183.88 47.5205C183.88 51.6805 183 55.3871 181.24 58.6405C179.96 61.0938 178.12 62.9605 175.72 64.2405C172.787 65.8405 169.507 66.6405 165.88 66.6405C157.613 66.6405 152.013 63.0938 149.08 56.0005C148.227 53.8671 147.64 51.3871 147.32 48.5605C147.16 47.4938 147.027 45.8671 146.92 43.6805H159.4C159.507 49.5471 160.12 53.8671 161.24 56.6405C162.467 59.6805 164.04 61.2005 165.96 61.2005C167.027 61.2005 168.013 60.8005 168.92 60.0005C169.72 59.2538 170.36 58.0805 170.84 56.4805C171.373 54.7738 171.64 52.9071 171.64 50.8805C171.64 48.3738 171.213 46.2405 170.36 44.4805C169.453 42.5071 167.88 40.8538 165.64 39.5205L157 34.4005C153.8 32.4805 151.453 30.3738 149.96 28.0805C148.36 25.5205 147.56 22.4005 147.56 18.7205C147.56 14.6671 148.36 11.1738 149.96 8.24047C151.08 6.10713 152.787 4.3738 155.08 3.04047C158.067 1.3338 161.373 0.480469 165 0.480469C170.28 0.480469 174.467 2.1338 177.56 5.44047C180.12 8.10713 181.747 11.4405 182.44 15.4405C182.653 16.7205 182.84 18.4805 183 20.7205Z" fill="#F9F9F9"/>
<path d="M116.36 28.4797L112.6 65.5197H104.12L97.4 1.67969H107.64L110.6 34.2397L113.96 1.67969H122.52L126.36 34.7197L129.8 1.67969H135.8L129.08 65.5197H120.6L116.36 28.4797Z" fill="#F9F9F9"/>
<path d="M62.2 29.2007H78.28L82.84 28.2407V36.8807L78.28 35.9207H62.2V58.8007H81.32L85.96 57.8407V66.4807L81.32 65.5207H50.12V1.6807H81.32L85.96 0.720703V9.3607L81.32 8.4007H62.2V29.2007Z" fill="#F9F9F9"/>
<path d="M7.88004 23.9197V65.5197H1.16003V1.67969H11.48L30.12 43.3597V1.67969H36.84V65.5197H26.52L7.88004 23.9197Z" fill="#F9F9F9"/>
</svg>
